<svg width="228" height="44" fill="none" xmlns="http://www.w3.org/2000/svg"><path fill="#0D75FF" fill-opacity=".9" d="M0 11h27v22H0z"/><path fill="#0D75FF" d="M27 0h27v22H27z"/><path fill="#0D75FF" fill-opacity=".8" d="M21 22h27v22H21z"/><path d="M74.68 36.13a5.34 5.34 0 0 1-2.99-.68c-.67-.43-1-1.17-1-2.2 0-.07.05-.1.17-.1.17 0 .47.05.9.17a22.68 22.68 0 0 0 8.2-.5 16.36 16.36 0 0 0 4.55-1.94c1.3-.82 2.29-1.73 2.99-2.74a5.48 5.48 0 0 0 1.08-3.17c0-.98-.28-1.77-.83-2.37a5.2 5.2 0 0 0-2.2-1.37c-.89-.31-1.86-.52-2.91-.61a27.72 27.72 0 0 0-4.54-.15h-1.3c-.55 1.95-1.09 3.9-1.62 5.87-.52 1.97-1.06 3.88-1.62 5.72-.6 0-1.1-.16-1.5-.5-.42-.34-.62-.74-.62-1.22 0-.3.06-.63.18-1.01l.32-1.05.76-2.4c.36-1.14.8-2.46 1.3-3.97a207.7 207.7 0 0 1 3.63-9.61 66.68 66.68 0 0 1 1.95-4.21 10.52 10.52 0 0 0-4.14 1.58c-.39.24-.66.36-.83.36-.17 0-.41-.12-.72-.36-.29-.24-.43-.44-.43-.61 1.2-.5 2.44-.96 3.74-1.37a17.84 17.84 0 0 1 7.42-.4c.96.13 1.87.39 2.73.8.87.38 1.57.96 2.13 1.73.55.74.82 1.74.82 2.98 0 1.18-.25 2.19-.75 3.03-.5.81-1.17 1.5-1.98 2.05-.82.53-1.7.95-2.67 1.26-.96.31-1.9.54-2.84.68 1.78.1 3.2.35 4.28.76 1.1.4 1.94.9 2.49 1.48.57.55.96 1.14 1.15 1.76.2.62.29 1.22.29 1.8 0 1.4-.36 2.65-1.08 3.78a10.7 10.7 0 0 1-2.85 2.95 18.03 18.03 0 0 1-3.85 2.09c-1.39.58-2.77 1-4.14 1.26-1.37.29-2.59.43-3.67.43Zm2.34-16.49c1.32-.04 2.63-.19 3.92-.43 1.32-.26 2.52-.67 3.6-1.22a7.2 7.2 0 0 0 2.6-2.16c.67-.89 1-2 1-3.31 0-1.25-.3-2.21-.9-2.88a4.52 4.52 0 0 0-2.26-1.4c-.92-.27-1.89-.4-2.92-.4h-.36c-.1 0-.2 0-.32.03A45.82 45.82 0 0 0 79 13.42c-.7 2.01-1.36 4.09-1.98 6.22Zm17.37 14.51c-1.04 0-1.77-.32-2.2-.97a3.95 3.95 0 0 1-.65-2.3c0-.75.12-1.52.36-2.3.24-.8.55-1.54.94-2.24.4-.7.85-1.26 1.33-1.7.5-.42 1-.64 1.51-.64.22 0 .47.06.76.18-.22.2-.48.55-.8 1.08a20.85 20.85 0 0 0-1.51 3.7c-.16.66-.25 1.2-.25 1.66 0 .72.12 1.25.36 1.59.24.31.55.47.94.47.5 0 1.1-.27 1.8-.8.7-.55 1.38-1.24 2.05-2.08a5.63 5.63 0 0 1-1.58-2.16 7.5 7.5 0 0 1-.54-2.78c0-.79.13-1.53.4-2.23.28-.7.69-1.25 1.22-1.65a2.92 2.92 0 0 1 1.9-.65c.99 0 1.65.26 1.98.79.34.53.5 1.19.5 1.98a8.6 8.6 0 0 1-.68 3.13 18.64 18.64 0 0 1-1.72 3.28c.43.24.88.36 1.36.36.56 0 1.23-.18 2.02-.54a3.9 3.9 0 0 0 1.84-2.05l.43.36a4.7 4.7 0 0 1-2.05 2.4c-.87.46-1.7.7-2.49.7-.65 0-1.22-.13-1.73-.37a13.08 13.08 0 0 1-2.7 2.7 4.7 4.7 0 0 1-2.8 1.08Zm5.29-5.29c.6-.89 1.09-1.81 1.47-2.77.41-.99.62-1.91.62-2.77 0-.7-.11-1.2-.33-1.52-.19-.33-.44-.5-.75-.5-.48 0-.98.35-1.48 1.04-.5.7-.76 1.58-.76 2.63 0 .7.1 1.4.3 2.13.2.7.52 1.28.93 1.76Zm7.85 5.3c-1.03 0-1.76-.33-2.2-.98a3.95 3.95 0 0 1-.64-2.3c0-.75.12-1.52.36-2.3.24-.8.55-1.54.94-2.24.4-.7.85-1.26 1.33-1.7.5-.42 1-.64 1.51-.64.22 0 .47.06.76.18-.22.2-.48.55-.8 1.08a20.85 20.85 0 0 0-1.51 3.7c-.17.66-.25 1.2-.25 1.66 0 .72.12 1.25.36 1.59.24.31.55.47.94.47.5 0 1.1-.27 1.8-.8.7-.55 1.38-1.24 2.05-2.08a5.63 5.63 0 0 1-1.59-2.16 7.5 7.5 0 0 1-.53-2.78c0-.79.13-1.53.4-2.23.28-.7.69-1.25 1.22-1.65a2.92 2.92 0 0 1 1.9-.65c.99 0 1.65.26 1.98.79.34.53.5 1.19.5 1.98a8.6 8.6 0 0 1-.68 3.13 18.64 18.64 0 0 1-1.72 3.28c.43.24.88.36 1.36.36.56 0 1.23-.18 2.02-.54a3.9 3.9 0 0 0 1.83-2.05l.44.36a4.7 4.7 0 0 1-2.06 2.4c-.86.46-1.69.7-2.48.7-.65 0-1.22-.13-1.73-.37a13.08 13.08 0 0 1-2.7 2.7 4.7 4.7 0 0 1-2.8 1.08Zm5.3-5.3c.6-.89 1.09-1.81 1.47-2.77.41-.99.62-1.91.62-2.77 0-.7-.11-1.2-.33-1.52-.2-.33-.44-.5-.76-.5-.47 0-.97.35-1.47 1.04-.5.7-.76 1.58-.76 2.63 0 .7.1 1.4.3 2.13.2.7.52 1.28.93 1.76Zm16.06 5.5c-.67 0-1.25-.22-1.73-.68a4.96 4.96 0 0 1-1.15-1.72c-.26-.7-.47-1.4-.61-2.13-.12-.74-.18-1.39-.18-1.94.26 0 .65-.06 1.15-.18a9 9 0 0 0 1.55-.61c.53-.3.97-.65 1.33-1.08.38-.46.58-.99.58-1.59 0-.5-.18-.9-.54-1.19a1.96 1.96 0 0 0-1.26-.43c-.75 0-1.44.27-2.1.8a7.72 7.72 0 0 0-1.76 2.01c-.5.82-.95 1.7-1.36 2.63-.41.93-.76 1.82-1.05 2.66l-.72 2.09c-.14.43-.35.72-.6.86-.27.17-.55.26-.84.26-.4 0-.7-.17-.9-.5a3.58 3.58 0 0 1-.32-1.27 18.09 18.09 0 0 1 .58-5.94c.4-1.63.94-3.32 1.61-5.07a66.7 66.7 0 0 1 4.72-9.65 23.06 23.06 0 0 1 2.27-3.2c.7-.8 1.26-1.2 1.7-1.2.33 0 .6.23.78.69.22.46.33 1 .33 1.66 0 .81-.18 1.74-.54 2.77-.36 1-.88 2.03-1.55 3.06-.65 1.03-1.43 2-2.34 2.91-.89.92-1.86 1.7-2.92 2.34-.79 1.95-1.39 3.84-1.8 5.7a23.05 23.05 0 0 0-.57 4.6c.38-.96.84-2.02 1.36-3.17a27.98 27.98 0 0 1 1.88-3.31c.7-1.06 1.45-1.92 2.27-2.6.81-.66 1.66-1 2.55-1 .89 0 1.64.31 2.27.94.62.62.94 1.38.94 2.26 0 .77-.2 1.43-.62 1.98-.38.53-.86.96-1.44 1.3-.55.31-1.11.55-1.69.72-.55.14-1 .22-1.37.22a11.67 11.67 0 0 0 .72 2.62c.24.56.53 1.04.87 1.44.33.39.74.58 1.22.58 1.03 0 2-.56 2.88-1.7a21.3 21.3 0 0 0 2.45-4.17l.36.36a12.1 12.1 0 0 1-1.55 3.35 10.31 10.31 0 0 1-2.34 2.52c-.84.67-1.68 1-2.52 1Zm-5.25-15.08c1.1-.88 2.06-1.9 2.88-3.02a17 17 0 0 0 1.94-3.24c.45-1.06.68-1.88.68-2.48 0-.22-.03-.33-.1-.33-.25 0-.66.42-1.26 1.26a55.47 55.47 0 0 0-4.14 7.81Zm17.93 16.85c-1.3 0-2.52-.24-3.67-.72a6.36 6.36 0 0 1-2.8-2.12 5.97 5.97 0 0 1-1.05-3.6c0-1.25.24-2.22.72-2.92.5-.7 1.12-1.19 1.84-1.47.72-.3 1.4-.44 2.05-.44a7.4 7.4 0 0 0-1.48 2.3c-.33.85-.5 1.69-.5 2.53 0 .89.19 1.71.57 2.48a4.5 4.5 0 0 0 1.84 1.84c.82.48 1.85.72 3.1.72 1.08 0 2.13-.2 3.16-.61a5.93 5.93 0 0 0 2.52-1.73c.68-.8 1.01-1.77 1.01-2.92 0-1.03-.26-1.92-.79-2.66a8.09 8.09 0 0 0-2.05-1.98c-.82-.58-1.7-1.13-2.63-1.66a35.88 35.88 0 0 1-2.66-1.65 8.6 8.6 0 0 1-2.02-2.06c-.53-.76-.8-1.69-.8-2.77 0-1 .25-2.06.73-3.17.48-1.1 1.16-2.14 2.05-3.13.91-.98 2-1.77 3.24-2.37a9.51 9.51 0 0 1 4.25-.94c1.41 0 2.4.35 2.95 1.04.55.68.83 1.53.83 2.56 0 .86-.16 1.8-.47 2.8-.29 1-.65 1.94-1.08 2.85a26.5 26.5 0 0 1-1.22 2.27 1.5 1.5 0 0 1-.94-.54 1.96 1.96 0 0 1-.25-1c0-.51.1-1.09.32-1.74.22-.64.46-1.32.72-2.01.29-.7.54-1.37.76-2.02.21-.67.32-1.27.32-1.8 0-.48-.14-.85-.43-1.11-.29-.3-.82-.44-1.58-.44a6.4 6.4 0 0 0-3.14.8 10.23 10.23 0 0 0-4.21 4.64 6.48 6.48 0 0 0-.57 2.48c0 .9.25 1.66.75 2.3.53.63 1.2 1.2 2.02 1.74.81.5 1.68 1.02 2.59 1.54.94.5 1.81 1.07 2.63 1.7a7.63 7.63 0 0 1 1.98 2.23c.53.84.79 1.87.79 3.1 0 1.24-.28 2.35-.83 3.3a7.51 7.51 0 0 1-2.23 2.38 11.32 11.32 0 0 1-6.34 1.98Zm13.69-1.76c-.46 0-.82-.39-1.08-1.15a7.94 7.94 0 0 1-.4-2.6c0-1.15.2-2.52.58-4.1.38-1.58.89-3.25 1.51-5a53.35 53.35 0 0 1 4.5-9.72 22.21 22.21 0 0 1 2.3-3.28c.72-.82 1.35-1.22 1.88-1.22.43 0 .73.26.9.79.19.5.28 1 .28 1.47 0 .68-.15 1.5-.46 2.45-.3.96-.7 2-1.23 3.1a28.85 28.85 0 0 1-1.83 3.2 23.02 23.02 0 0 1-2.27 2.92c-.82.86-1.65 1.55-2.49 2.05a16.77 16.77 0 0 0-1.18 4.9c-.1.81-.15 1.54-.15 2.2v.68l.07.54c.58-1.66 1.23-3.2 1.95-4.61a12.85 12.85 0 0 1 2.41-3.42c.91-.87 1.9-1.3 2.95-1.3.99 0 1.68.35 2.09 1.05.43.67.65 1.4.65 2.2 0 .74-.13 1.46-.4 2.15-.24.7-.49 1.37-.75 2.02-.27.65-.4 1.27-.4 1.87 0 .48.1.83.29 1.04.21.22.48.33.79.33.55 0 1.16-.27 1.84-.8.7-.52 1.38-1.22 2.05-2.08a15.8 15.8 0 0 0 1.73-2.88l.46.43a15.47 15.47 0 0 1-1.83 3.2 9.42 9.42 0 0 1-2.38 2.24c-.86.55-1.76.82-2.7.82-.81 0-1.44-.21-1.87-.64-.4-.44-.61-.98-.61-1.62 0-.5.1-1.07.29-1.7.19-.62.37-1.26.54-1.9.19-.65.28-1.26.28-1.84 0-.62-.13-1.07-.4-1.33-.26-.27-.58-.4-.96-.4-.6 0-1.14.24-1.62.72-.48.48-.93 1.1-1.34 1.87-.38.75-.75 1.54-1.11 2.38l-.97 2.41c-.32.75-.63 1.36-.94 1.84-.31.48-.64.72-.97.72Zm2.66-12.5c.67-.52 1.32-1.2 1.95-2.01.64-.82 1.24-1.68 1.8-2.6.55-.93 1.04-1.84 1.47-2.73.43-.89.77-1.69 1.01-2.41.24-.72.36-1.26.36-1.62 0-.2-.05-.29-.14-.29-.17 0-.52.34-1.05 1.01a38.32 38.32 0 0 0-5.4 10.66Zm16.66 12.71c-1.47 0-2.57-.4-3.32-1.22a4.22 4.22 0 0 1-1.08-2.95c0-1.08.27-2.22.8-3.42.55-1.2 1.27-2.33 2.16-3.39.9-1.05 1.9-1.9 2.98-2.55 1.08-.67 2.15-1.01 3.2-1.01.56 0 1.06.14 1.52.43.48.29.72.88.72 1.77 0 .9-.28 1.77-.83 2.59-.53.79-1.23 1.5-2.12 2.12a12.06 12.06 0 0 1-5.98 2.27 8 8 0 0 0-.14 1.3c0 .74.19 1.44.57 2.08.41.63 1.17.94 2.27.94a6.1 6.1 0 0 0 3.06-.86c1.01-.6 1.95-1.38 2.81-2.34.86-.96 1.6-2.02 2.2-3.17l.43.32a13.23 13.23 0 0 1-2.49 3.75 11.1 11.1 0 0 1-3.24 2.44c-1.15.6-2.32.9-3.52.9Zm-1.77-6.04a16.2 16.2 0 0 0 4.54-2.45 8.27 8.27 0 0 0 1.87-1.91c.5-.7.76-1.43.76-2.2 0-.26-.05-.46-.15-.6-.1-.15-.3-.22-.61-.22-.58 0-1.19.22-1.84.68-.64.43-1.27 1-1.87 1.73-.6.72-1.14 1.51-1.62 2.37a11.9 11.9 0 0 0-1.08 2.6Zm12.85 5.54c-1.03 0-1.77-.36-2.23-1.08a4.9 4.9 0 0 1-.65-2.63c0-1.15.22-2.52.65-4.1.43-1.59 1-3.25 1.7-5a70.7 70.7 0 0 1 4.85-9.69c.84-1.37 1.61-2.46 2.3-3.28.73-.81 1.3-1.22 1.7-1.22.26 0 .48.16.65.47a4.9 4.9 0 0 1 .54 2.2c0 .64-.17 1.5-.5 2.55a34.41 34.41 0 0 1-3.46 7.38c-.8 1.3-1.67 2.54-2.63 3.74a19.35 19.35 0 0 1-2.99 3.1 14.52 14.52 0 0 0-.47 3.64c0 1.84.53 2.77 1.59 2.77.65 0 1.28-.29 1.9-.87.65-.57 1.25-1.3 1.8-2.16a18.9 18.9 0 0 0 1.48-2.73l.54.29c-.96 2.04-2 3.66-3.13 4.86a5 5 0 0 1-3.64 1.76Zm.26-8.78c.84-.84 1.65-1.8 2.44-2.88a39.4 39.4 0 0 0 2.2-3.42c.7-1.18 1.3-2.32 1.84-3.42.52-1.1.93-2.1 1.22-2.96.29-.88.43-1.57.43-2.05 0-.24-.03-.4-.1-.47-.05-.07-.1-.1-.15-.1-.2 0-.53.3-1 .93-.46.6-1 1.42-1.63 2.45a46.18 46.18 0 0 0-1.9 3.53 73.85 73.85 0 0 0-1.88 4.14 47.18 47.18 0 0 0-1.47 4.25Zm8.32 9.36c-2.13 0-3.2-1.2-3.2-3.57 0-1.05.2-2.35.58-3.89.4-1.56.9-3.15 1.5-4.78a4.56 4.56 0 0 1-1.3-.29v-.65a20.8 20.8 0 0 0 1.6.14 53.25 53.25 0 0 1 3.3-6.98c.58-.96 1.12-1.72 1.63-2.27.53-.57.97-.86 1.33-.86.2 0 .36.07.5.21.17.12.26.32.26.58 0 .4-.26 1.08-.76 2.02-.5.9-1.13 2-1.87 3.27a51 51 0 0 0-2.16 4.14h1.33l2.48-.03a33.1 33.1 0 0 0 2.67-.18v.64a60.6 60.6 0 0 1-6.34.44h-.54a31.77 31.77 0 0 0-1.4 3.92 14.25 14.25 0 0 0-.58 3.92c0 1.04.16 1.78.47 2.24.31.43.83.64 1.55.64 1.25 0 2.47-.55 3.67-1.65 1.2-1.1 2.26-2.6 3.17-4.5l.47.36a14.98 14.98 0 0 1-2.2 3.63 10.63 10.63 0 0 1-2.88 2.56 6.36 6.36 0 0 1-3.28.94Zm11.1-.08c-1.47 0-2.57-.4-3.31-1.22a4.22 4.22 0 0 1-1.09-2.95c0-1.08.27-2.22.8-3.42.55-1.2 1.27-2.33 2.16-3.39.9-1.05 1.9-1.9 2.98-2.55 1.09-.67 2.15-1.01 3.2-1.01.56 0 1.06.14 1.52.43.48.29.72.88.72 1.77 0 .9-.28 1.77-.83 2.59-.53.79-1.23 1.5-2.12 2.12a12.06 12.06 0 0 1-5.98 2.27 8 8 0 0 0-.14 1.3c0 .74.2 1.44.57 2.08.41.63 1.17.94 2.27.94a6.1 6.1 0 0 0 3.06-.86c1.01-.6 1.95-1.38 2.81-2.34.86-.96 1.6-2.02 2.2-3.17l.43.32a13.23 13.23 0 0 1-2.49 3.75 11.1 11.1 0 0 1-3.23 2.44c-1.16.6-2.33.9-3.53.9Zm-1.77-6.04a16.2 16.2 0 0 0 4.54-2.45 8.27 8.27 0 0 0 1.87-1.91c.5-.7.76-1.43.76-2.2 0-.26-.05-.46-.15-.6-.1-.15-.3-.22-.6-.22-.59 0-1.2.22-1.84.68-.65.43-1.28 1-1.88 1.73-.6.72-1.14 1.51-1.62 2.37a11.9 11.9 0 0 0-1.08 2.6Zm16.1 5.4a2.8 2.8 0 0 1-1.95-.65c-.45-.43-.68-1-.68-1.7 0-.71.17-1.47.5-2.26l.97-2.34c.34-.8.5-1.5.5-2.13 0-.76-.22-1.33-.68-1.69-.43-.38-.87-.73-1.33-1.04a63.6 63.6 0 0 1-1.73 4.03c-.6 1.27-1.09 2.23-1.47 2.88l-.33-.61c.34-.63.77-1.54 1.3-2.74.55-1.2 1.1-2.57 1.62-4.1a1.18 1.18 0 0 1-.36-.87c0-.72.2-1.3.61-1.76.41-.46.71-.68.9-.68.27 0 .41.12.43.36.05.21.08.38.08.5s-.08.36-.22.72c-.12.34-.18.54-.18.61 0 .34.18.65.54.94.38.26.82.57 1.3.93.48.34.9.76 1.26 1.26.38.48.57 1.1.57 1.88 0 .72-.15 1.45-.47 2.2-.28.74-.58 1.44-.9 2.12a4.59 4.59 0 0 0-.43 1.76c0 .43.11.72.33.86.21.15.46.22.75.22.58 0 1.17-.18 1.77-.54a9.4 9.4 0 0 0 1.8-1.37A14.8 14.8 0 0 0 225.7 29c.46-.62.8-1.2 1.01-1.72l.47.36c-.46 1-1.08 2-1.87 2.98-.8.96-1.68 1.76-2.67 2.38a5.4 5.4 0 0 1-2.98.94Z" fill="#000"/></svg>